<svg width="600" height="56" viewBox="0 0 600 56" fill="none" xmlns="http://www.w3.org/2000/svg">
<rect width="601" height="56" fill="#00A4FF"/>
<g clip-path="url(#clip0_491_1080)">
<path d="M93.3706 23.7993C95.5277 22.8915 96.8719 24.27 95.2437 26.3606C94.2525 27.6287 92.2154 28.964 90.7928 28.3948C90.3138 26.7629 91.4655 24.6062 93.3706 23.8005M93.039 37.7719C93.6368 37.8608 95.8272 37.9544 97.5089 37.3312L99.6494 33.2821C95.8439 35.6753 89.9727 32.8762 93.4942 31.5541C97.1001 29.8826 101.45 26.1541 99.155 21.7231C97.9475 19.3923 91.3728 18.5302 87.698 24.1415C84.4712 29.6148 86.4405 36.7836 93.0402 37.7731" fill="white"/>
<path d="M76.1194 16.0216C75.7545 19.7285 75.285 23.0391 74.4674 25.6713C73.6283 23.0487 73.1291 19.7453 72.7334 16.0396L66.6115 16.0853C64.3153 21.4661 63.6153 35.0952 63.5 38L68.2266 37.964C68.4085 37.9616 68.0103 30.0422 69.3854 25.4311C70.8936 31.1866 71.8979 34.1538 72.8059 37.9304L74.522 37.9183L76.2382 37.9111C77.1141 34.1226 78.0934 31.1446 79.5517 25.3747C80.966 29.969 80.6784 37.8943 80.8591 37.8955L85.5465 37.8775C85.405 34.9752 84.585 21.3544 82.2389 16L76.1206 16.0216H76.1194Z" fill="white"/>
<path d="M153.78 20.119C149.599 20.143 148.637 21.7413 148.637 21.7413L148.631 20.5381L144.234 20.5597L144.308 37.4995L149.137 37.4755L149.107 30.3223C149.089 26.6778 150.102 25.0159 152.086 25.0039C153.399 24.9979 154.314 26.0642 154.329 29.2511L154.369 37.4467L159.195 37.4178L159.151 26.8495C159.133 23.3384 157.591 20.095 153.78 20.1178" fill="white"/>
<path d="M169.557 32.2925C169.07 33.3553 167.851 33.5066 166.724 33.5114C165.614 33.521 164.764 32.8521 164.761 31.6969C164.754 30.0927 166.019 29.4754 167.634 29.4682C168.348 29.4634 169.036 29.5211 169.644 29.5535C169.649 30.286 169.851 31.6573 169.557 32.2925ZM174.076 26.77C174.053 21.6666 171.006 19.8582 167.485 19.8786C165.449 19.8894 163.678 20.252 161.984 21.0938L162.082 25.0072C163.401 24.1018 164.938 23.7428 166.47 23.7344C168.191 23.7212 169.593 24.324 169.631 26.6019C169.023 26.477 168.178 26.387 167.409 26.3894C164.865 26.4026 160.293 27.0414 160.315 32.1376C160.331 35.7629 162.775 37.2435 165.499 37.3696C169.253 37.5425 174.126 35.5107 174.126 35.5107C174.12 34.1922 174.109 34.3063 174.105 32.9902L174.076 26.77Z" fill="white"/>
<path d="M177.23 20.5714L176.779 20.5774L176.763 19.8689L177.185 19.8617C177.369 19.8557 177.493 19.8677 177.561 19.8953C177.631 19.9218 177.685 19.9614 177.722 20.0118C177.76 20.067 177.785 20.1343 177.783 20.2027C177.788 20.3084 177.747 20.3973 177.67 20.4597C177.593 20.5282 177.447 20.5654 177.228 20.5702M177.731 20.9556C177.683 20.9112 177.616 20.8692 177.531 20.8356C177.732 20.8164 177.892 20.7419 178.007 20.611C178.12 20.4813 178.18 20.3312 178.179 20.1619C178.177 20.0418 178.138 19.9254 178.065 19.8185C177.99 19.7152 177.889 19.6384 177.767 19.5951C177.645 19.5543 177.451 19.5387 177.179 19.5447L176.383 19.5579L176.43 21.9043L176.8 21.8971L176.786 20.9028L177.002 20.8992C177.134 20.8956 177.236 20.9196 177.302 20.9737C177.405 21.0421 177.542 21.2246 177.704 21.5116L177.918 21.8755L178.376 21.8695L178.085 21.4132C177.944 21.2018 177.827 21.0469 177.732 20.9556" fill="white"/>
<path d="M178.926 21.56C178.774 21.8505 178.558 22.0799 178.276 22.2456C177.992 22.4113 177.696 22.499 177.389 22.5026C177.076 22.5074 176.777 22.4317 176.487 22.2744C176.203 22.1219 175.976 21.8998 175.813 21.6152C175.645 21.3306 175.561 21.0316 175.555 20.717C175.548 20.3988 175.623 20.095 175.777 19.7984C175.933 19.5054 176.155 19.276 176.436 19.1151C176.719 18.9494 177.01 18.8653 177.314 18.8617C177.611 18.8545 177.911 18.9302 178.2 19.0839C178.491 19.2316 178.718 19.4537 178.882 19.7419C179.05 20.0313 179.134 20.3351 179.142 20.6521C179.147 20.9643 179.074 21.267 178.924 21.5587M179.192 19.5582C178.99 19.21 178.716 18.947 178.369 18.7621C178.02 18.5807 177.671 18.4943 177.306 18.5003C176.949 18.5075 176.595 18.6072 176.254 18.8017C175.918 18.9986 175.651 19.2688 175.466 19.623C175.279 19.9737 175.191 20.3435 175.2 20.7218C175.206 21.0976 175.308 21.4567 175.504 21.7989C175.706 22.1459 175.972 22.4053 176.317 22.595C176.664 22.7824 177.021 22.8688 177.393 22.864C177.765 22.8556 178.119 22.756 178.46 22.5578C178.796 22.3585 179.056 22.0847 179.236 21.7317C179.419 21.3834 179.507 21.0232 179.499 20.6461C179.493 20.2655 179.384 19.9016 179.191 19.5594" fill="white"/>
<path d="M137.982 32.4704C137.495 33.5319 136.274 33.6844 135.15 33.6904C134.04 33.6964 133.189 33.0263 133.184 31.8736C133.178 30.2693 134.444 29.6533 136.059 29.6437C136.771 29.6389 137.458 29.7001 138.068 29.7277C138.072 30.4614 138.273 31.8327 137.982 32.4692M142.501 26.9454C142.478 21.8456 139.43 20.036 135.909 20.0588C133.87 20.0648 132.099 20.4275 130.409 21.2728L130.506 25.1851C131.827 24.2784 133.361 23.9206 134.892 23.9062C136.614 23.9002 138.018 24.5006 138.053 26.7761C137.446 26.6536 136.6 26.5624 135.832 26.566C133.291 26.5804 128.717 27.2132 128.74 32.3131C128.756 35.9383 131.201 37.4189 133.921 37.5438C137.675 37.7155 142.547 35.6825 142.547 35.6825C142.542 34.3676 142.532 34.4829 142.528 33.1668L142.501 26.9454Z" fill="white"/>
<path d="M115.41 20.1704L110.118 20.198L107.964 25.4492L105.871 20.222L100.15 20.2569L104.566 28.8246L99.8516 37.7478L105.306 37.7178L107.59 32.2673L109.955 37.6938L115.782 37.6614L111.066 28.7202L115.41 20.1704Z" fill="white"/>
<path d="M120.712 24.9171C120.705 23.9685 121.892 23.7331 122.941 23.7283C124.156 23.7211 125.696 24.4704 126.726 25.2161L127.083 21.1286C125.129 19.977 123.816 19.8005 122.143 19.8089C119.339 19.8257 116.166 21.4468 116.182 25.3674C116.21 31.5119 123.103 29.4466 123.117 32.3225C123.122 33.5005 122.152 33.6998 121.155 33.707C119.402 33.7202 117.483 32.4426 116.345 31.8578L116.096 36.1411C117.528 36.6898 119.259 37.6409 121.442 37.6253C124.623 37.6096 127.988 36.4449 127.969 31.9022C127.94 25.4287 120.721 27.5649 120.712 24.9147" fill="white"/>
</g>
<path d="M259.067 22.404V24.324C257.883 23.252 256.779 23.14 256.171 23.14C253.851 23.14 252.283 24.852 252.283 27.204C252.283 29.46 253.915 31.204 256.187 31.204C257.467 31.204 258.459 30.548 259.067 29.972V31.908C257.995 32.548 256.875 32.708 256.139 32.708C254.203 32.708 252.987 31.828 252.363 31.236C251.115 30.068 250.651 28.708 250.651 27.204C250.651 25.236 251.467 23.876 252.363 23.028C253.467 21.988 254.747 21.636 256.219 21.636C257.195 21.636 258.139 21.812 259.067 22.404ZM264.045 25.588C266.077 25.588 267.645 27.06 267.645 29.14C267.645 31.204 266.077 32.708 264.045 32.708C262.013 32.708 260.445 31.204 260.445 29.14C260.445 27.06 262.013 25.588 264.045 25.588ZM264.045 31.3C265.277 31.3 266.045 30.452 266.045 29.156C266.045 27.62 265.037 26.996 264.045 26.996C263.053 26.996 262.045 27.62 262.045 29.156C262.045 30.452 262.813 31.3 264.045 31.3ZM269.265 32.5V25.764H270.833V26.388C271.505 25.636 272.273 25.588 272.657 25.588C273.905 25.588 274.433 26.212 274.641 26.5C274.897 26.868 275.057 27.332 275.057 28.372V32.5H273.489V28.756C273.489 27.044 272.849 26.996 272.257 26.996C271.553 26.996 270.833 27.092 270.833 29.268V32.5H269.265ZM281.767 30.228L283.079 30.964C282.791 31.476 282.375 31.924 281.943 32.196C281.399 32.548 280.679 32.708 279.959 32.708C279.063 32.708 278.327 32.484 277.687 31.844C277.047 31.204 276.695 30.276 276.695 29.268C276.695 28.228 277.063 27.22 277.767 26.5C278.327 25.94 279.063 25.588 280.023 25.588C281.095 25.588 281.783 26.052 282.183 26.468C283.047 27.364 283.127 28.612 283.127 29.316V29.508H278.295C278.327 29.988 278.535 30.532 278.871 30.868C279.239 31.236 279.687 31.3 280.071 31.3C280.503 31.3 280.823 31.204 281.143 30.964C281.415 30.756 281.623 30.484 281.767 30.228ZM278.407 28.228H281.527C281.463 27.86 281.287 27.54 281.047 27.316C280.839 27.124 280.503 26.932 279.991 26.932C279.447 26.932 279.095 27.156 278.887 27.364C278.663 27.572 278.487 27.892 278.407 28.228ZM280.615 21.7L282.055 22.436L279.559 24.74L278.695 24.196L280.615 21.7ZM289.981 26.068V27.828C289.261 27.124 288.557 26.996 288.077 26.996C287.341 26.996 286.877 27.3 286.589 27.588C286.301 27.876 286.013 28.388 286.013 29.14C286.013 29.924 286.317 30.452 286.621 30.756C286.973 31.092 287.469 31.3 288.045 31.3C288.685 31.3 289.437 31.044 289.981 30.436V32.18C289.597 32.42 288.973 32.708 287.933 32.708C286.813 32.708 286.013 32.388 285.373 31.716C284.893 31.22 284.413 30.42 284.413 29.188C284.413 27.924 284.941 27.076 285.437 26.58C285.965 26.052 286.813 25.588 288.141 25.588C288.653 25.588 289.261 25.668 289.981 26.068ZM294.3 27.204H293.1V32.5H291.532V27.204H290.876V25.764H291.532V23.3H293.1V25.764H294.3V27.204ZM300.287 26.548V25.764H301.855V32.5H300.287V31.796C299.599 32.596 298.751 32.708 298.271 32.708C296.191 32.708 295.007 30.98 295.007 29.124C295.007 26.932 296.511 25.588 298.287 25.588C298.783 25.588 299.647 25.716 300.287 26.548ZM298.479 26.996C297.343 26.996 296.607 27.956 296.607 29.156C296.607 30.324 297.343 31.3 298.479 31.3C299.471 31.3 300.383 30.58 300.383 29.172C300.383 27.7 299.471 26.996 298.479 26.996ZM306.66 27.204H305.46V32.5H303.892V27.204H303.236V25.764H303.892V23.3H305.46V25.764H306.66V27.204ZM312.439 30.228L313.751 30.964C313.463 31.476 313.047 31.924 312.615 32.196C312.071 32.548 311.351 32.708 310.631 32.708C309.735 32.708 308.999 32.484 308.359 31.844C307.719 31.204 307.367 30.276 307.367 29.268C307.367 28.228 307.735 27.22 308.439 26.5C308.999 25.94 309.735 25.588 310.695 25.588C311.767 25.588 312.455 26.052 312.855 26.468C313.719 27.364 313.799 28.612 313.799 29.316V29.508H308.967C308.999 29.988 309.207 30.532 309.543 30.868C309.911 31.236 310.359 31.3 310.743 31.3C311.175 31.3 311.495 31.204 311.815 30.964C312.087 30.756 312.295 30.484 312.439 30.228ZM309.079 28.228H312.199C312.135 27.86 311.959 27.54 311.719 27.316C311.511 27.124 311.175 26.932 310.663 26.932C310.119 26.932 309.767 27.156 309.559 27.364C309.335 27.572 309.159 27.892 309.079 28.228ZM324.388 26.068V27.828C323.668 27.124 322.964 26.996 322.484 26.996C321.748 26.996 321.284 27.3 320.996 27.588C320.708 27.876 320.42 28.388 320.42 29.14C320.42 29.924 320.724 30.452 321.028 30.756C321.38 31.092 321.876 31.3 322.452 31.3C323.092 31.3 323.844 31.044 324.388 30.436V32.18C324.004 32.42 323.38 32.708 322.34 32.708C321.22 32.708 320.42 32.388 319.78 31.716C319.3 31.22 318.82 30.42 318.82 29.188C318.82 27.924 319.348 27.076 319.844 26.58C320.372 26.052 321.22 25.588 322.548 25.588C323.06 25.588 323.668 25.668 324.388 26.068ZM329.138 25.588C331.17 25.588 332.738 27.06 332.738 29.14C332.738 31.204 331.17 32.708 329.138 32.708C327.106 32.708 325.538 31.204 325.538 29.14C325.538 27.06 327.106 25.588 329.138 25.588ZM329.138 31.3C330.37 31.3 331.138 30.452 331.138 29.156C331.138 27.62 330.13 26.996 329.138 26.996C328.146 26.996 327.138 27.62 327.138 29.156C327.138 30.452 327.906 31.3 329.138 31.3ZM334.359 32.5V25.764H335.927V26.388C336.599 25.636 337.367 25.588 337.751 25.588C338.999 25.588 339.527 26.212 339.735 26.5C339.991 26.868 340.151 27.332 340.151 28.372V32.5H338.583V28.756C338.583 27.044 337.943 26.996 337.351 26.996C336.647 26.996 335.927 27.092 335.927 29.268V32.5H334.359ZM345.875 20.836H347.443V32.5H345.875V20.836ZM352.67 25.588C354.702 25.588 356.27 27.06 356.27 29.14C356.27 31.204 354.702 32.708 352.67 32.708C350.638 32.708 349.07 31.204 349.07 29.14C349.07 27.06 350.638 25.588 352.67 25.588ZM352.67 31.3C353.902 31.3 354.67 30.452 354.67 29.156C354.67 27.62 353.662 26.996 352.67 26.996C351.678 26.996 350.67 27.62 350.67 29.156C350.67 30.452 351.438 31.3 352.67 31.3ZM361.64 25.764H363.208V29.62C363.208 30.02 363.224 30.484 363.496 30.836C363.704 31.108 364.072 31.3 364.52 31.3C364.968 31.3 365.336 31.108 365.544 30.836C365.816 30.484 365.832 30.02 365.832 29.62V25.764H367.4V29.668C367.4 30.532 367.304 31.252 366.68 31.876C366.072 32.484 365.24 32.708 364.488 32.708C363.8 32.708 362.968 32.5 362.36 31.876C361.736 31.252 361.64 30.532 361.64 29.668V25.764ZM365.528 21.7L366.968 22.436L364.472 24.74L363.608 24.196L365.528 21.7ZM369.39 20.836H370.958V32.5H369.39V20.836ZM375.753 27.204H374.553V32.5H372.985V27.204H372.329V25.764H372.985V23.3H374.553V25.764H375.753V27.204ZM376.812 25.764H378.38V32.5H376.812V25.764ZM376.588 22.98C376.588 22.404 377.02 21.972 377.596 21.972C378.172 21.972 378.604 22.404 378.604 22.98C378.604 23.556 378.172 23.988 377.596 23.988C377.02 23.988 376.588 23.556 376.588 22.98ZM380.359 32.5V25.764H381.927V26.388C382.455 25.748 383.079 25.588 383.591 25.588C384.295 25.588 384.951 25.924 385.335 26.58C385.895 25.78 386.743 25.588 387.335 25.588C388.151 25.588 388.871 25.972 389.255 26.644C389.383 26.868 389.607 27.364 389.607 28.34V32.5H388.039V28.788C388.039 28.036 387.959 27.732 387.895 27.588C387.799 27.332 387.559 26.996 386.999 26.996C386.615 26.996 386.279 27.204 386.071 27.492C385.799 27.876 385.767 28.452 385.767 29.028V32.5H384.199V28.788C384.199 28.036 384.119 27.732 384.055 27.588C383.959 27.332 383.719 26.996 383.159 26.996C382.775 26.996 382.439 27.204 382.231 27.492C381.959 27.876 381.927 28.452 381.927 29.028V32.5H380.359ZM394.842 25.588C396.874 25.588 398.442 27.06 398.442 29.14C398.442 31.204 396.874 32.708 394.842 32.708C392.81 32.708 391.242 31.204 391.242 29.14C391.242 27.06 392.81 25.588 394.842 25.588ZM394.842 31.3C396.074 31.3 396.842 30.452 396.842 29.156C396.842 27.62 395.834 26.996 394.842 26.996C393.85 26.996 392.842 27.62 392.842 29.156C392.842 30.452 393.61 31.3 394.842 31.3ZM400.142 26.548C400.142 26.02 400.574 25.588 401.102 25.588C401.63 25.588 402.062 26.02 402.062 26.548C402.062 27.076 401.63 27.508 401.102 27.508C400.574 27.508 400.142 27.076 400.142 26.548ZM400.142 31.748C400.142 31.22 400.574 30.788 401.102 30.788C401.63 30.788 402.062 31.22 402.062 31.748C402.062 32.276 401.63 32.708 401.102 32.708C400.574 32.708 400.142 32.276 400.142 31.748Z" fill="white"/>
<g clip-path="url(#clip1_491_1080)">
<path d="M499.499 27.0798C499.499 19.855 493.679 13.9985 486.499 13.9985C479.317 14.0002 473.496 19.855 473.496 27.0814C473.496 33.609 478.251 39.0203 484.465 40.0018V30.8612H481.166V27.0814H484.468V24.197C484.468 20.9194 486.41 19.1092 489.379 19.1092C490.802 19.1092 492.289 19.3643 492.289 19.3643V22.5818H490.65C489.036 22.5818 488.532 23.5909 488.532 24.626V27.0798H492.136L491.561 30.8595H488.531V40.0002C494.745 39.0187 499.499 33.6074 499.499 27.0798Z" fill="white"/>
</g>
<path d="M518.6 27C518.6 28.0344 519.011 29.0263 519.743 29.7577C520.474 30.4891 521.466 30.9 522.5 30.9C523.535 30.9 524.527 30.4891 525.258 29.7577C525.99 29.0263 526.4 28.0344 526.4 27C526.4 26.7773 526.378 26.5606 526.337 26.35H527.7V31.5461C527.7 31.9075 527.408 32.2 527.047 32.2H517.953C517.78 32.1997 517.614 32.1306 517.492 32.008C517.369 31.8854 517.3 31.7193 517.3 31.5461V26.35H518.664C518.623 26.5606 518.601 26.7773 518.6 27ZM522.5 29.6C522.159 29.5999 521.821 29.5326 521.505 29.4018C521.19 29.271 520.903 29.0794 520.662 28.8378C520.42 28.5963 520.229 28.3096 520.098 27.994C519.968 27.6784 519.9 27.3402 519.9 26.9987C519.901 26.6572 519.968 26.319 520.099 26.0035C520.229 25.6881 520.421 25.4014 520.663 25.16C520.904 24.9185 521.191 24.727 521.506 24.5964C521.822 24.4658 522.16 24.3986 522.502 24.3987C523.192 24.3989 523.853 24.6731 524.341 25.1609C524.828 25.6487 525.102 26.3103 525.102 27C525.102 27.6898 524.827 28.3512 524.34 28.8388C523.852 29.3264 523.19 29.6002 522.5 29.6ZM519.38 24.27H517.822C517.77 24.2702 517.72 24.2602 517.672 24.2407C517.625 24.2212 517.582 24.1925 517.545 24.1563C517.509 24.12 517.48 24.077 517.46 24.0296C517.441 23.9822 517.43 23.9313 517.43 23.88V22.3213C517.43 22.2699 517.44 22.2189 517.46 22.1714C517.48 22.1238 517.508 22.0806 517.545 22.0442C517.581 22.0079 517.624 21.9791 517.672 21.9595C517.719 21.9399 517.77 21.9298 517.822 21.93H519.38C519.432 21.9298 519.483 21.9399 519.53 21.9595C519.578 21.9791 519.621 22.0079 519.658 22.0442C519.694 22.0806 519.723 22.1238 519.742 22.1714C519.762 22.2189 519.772 22.2699 519.772 22.3213V23.88C519.77 24.0945 519.595 24.27 519.38 24.27ZM522.5 14.52C525.81 14.52 528.985 15.8349 531.325 18.1753C533.666 20.5158 534.98 23.6901 534.98 27C534.98 30.3099 533.666 33.4843 531.325 35.8247C528.985 38.1652 525.81 39.48 522.5 39.48C520.862 39.48 519.239 39.1572 517.725 38.53C516.21 37.9029 514.835 36.9836 513.676 35.8247C512.517 34.6658 511.598 33.2901 510.97 31.7759C510.343 30.2618 510.02 28.6389 510.02 27C510.02 25.3611 510.343 23.7383 510.97 22.2241C511.598 20.71 512.517 19.3342 513.676 18.1753C514.835 17.0165 516.21 16.0972 517.725 15.47C519.239 14.8428 520.862 14.52 522.5 14.52ZM516 32.0557C516 32.85 516.65 33.5 517.445 33.5H527.556C528.35 33.5 529 32.85 529 32.0557V21.9443C529 21.15 528.35 20.5 527.556 20.5H517.445C516.65 20.5 516 21.15 516 21.9443V32.0557Z" fill="white"/>
<defs>
<clipPath id="clip0_491_1080">
<rect width="116" height="22" fill="white" transform="translate(63.5 16)"/>
</clipPath>
<clipPath id="clip1_491_1080">
<rect width="26" height="26" fill="white" transform="translate(473.5 14)"/>
</clipPath>
</defs>
</svg>
