<svg width="27" height="26" viewBox="0 0 27 26" fill="none" xmlns="http://www.w3.org/2000/svg">
<path d="M9.60047 13C9.60047 14.0344 10.0114 15.0263 10.7428 15.7577C11.4741 16.4891 12.4661 16.9 13.5005 16.9C14.5348 16.9 15.5268 16.4891 16.2582 15.7577C16.9896 15.0263 17.4005 14.0344 17.4005 13C17.3996 12.7773 17.3784 12.5606 17.3368 12.35H18.7005V17.5461C18.7005 17.9075 18.408 18.2 18.0466 18.2H8.95307C8.77987 18.1997 8.61388 18.1306 8.49153 18.008C8.36918 17.8854 8.30047 17.7193 8.30047 17.5461V12.35H9.66417C9.62257 12.5606 9.60133 12.7773 9.60047 13ZM13.5005 15.6C13.1589 15.5999 12.8208 15.5326 12.5053 15.4018C12.1898 15.271 11.9032 15.0794 11.6617 14.8378C11.4203 14.5963 11.2288 14.3096 11.0982 13.994C10.9676 13.6784 10.9004 13.3402 10.9005 12.9987C10.9006 12.6572 10.9679 12.319 11.0987 12.0035C11.2295 11.6881 11.4211 11.4014 11.6626 11.16C11.9042 10.9185 12.1909 10.727 12.5065 10.5964C12.8221 10.4658 13.1602 10.3986 13.5018 10.3987C14.1915 10.3989 14.8529 10.6731 15.3405 11.1609C15.8281 11.6487 16.1019 12.3103 16.1018 13C16.1016 13.6898 15.8274 14.3512 15.3396 14.8388C14.8518 15.3264 14.1902 15.6002 13.5005 15.6ZM10.3805 10.27H8.82177C8.77044 10.2702 8.71959 10.2602 8.67212 10.2407C8.62465 10.2212 8.58151 10.1925 8.54515 10.1563C8.5088 10.12 8.47996 10.077 8.46028 10.0296C8.4406 9.98217 8.43047 9.93134 8.43047 9.88002V8.32132C8.4303 8.26989 8.4403 8.21892 8.4599 8.17137C8.47951 8.12382 8.50832 8.08062 8.54469 8.04425C8.58106 8.00788 8.62427 7.97906 8.67182 7.95946C8.71937 7.93985 8.77033 7.92985 8.82177 7.93002H10.3805C10.4319 7.92985 10.4829 7.93985 10.5304 7.95946C10.578 7.97906 10.6212 8.00788 10.6575 8.04425C10.6939 8.08062 10.7227 8.12382 10.7423 8.17137C10.7619 8.21892 10.7719 8.26989 10.7718 8.32132V9.88002C10.7705 10.0945 10.595 10.27 10.3805 10.27ZM13.5005 0.52002C16.8104 0.52002 19.9847 1.83487 22.3252 4.17533C24.6656 6.51578 25.9805 9.69012 25.9805 13C25.9805 16.3099 24.6656 19.4843 22.3252 21.8247C19.9847 24.1652 16.8104 25.48 13.5005 25.48C11.8616 25.48 10.2387 25.1572 8.72458 24.53C7.21043 23.9029 5.83465 22.9836 4.67577 21.8247C3.5169 20.6658 2.59763 19.2901 1.97045 17.7759C1.34327 16.2618 1.02047 14.6389 1.02047 13C1.02047 11.3611 1.34327 9.73827 1.97045 8.22413C2.59763 6.70999 3.5169 5.3342 4.67577 4.17533C5.83465 3.01645 7.21043 2.09718 8.72458 1.47C10.2387 0.842824 11.8616 0.52002 13.5005 0.52002ZM7.00047 18.0557C7.00047 18.85 7.65047 19.5 8.44477 19.5H18.5562C19.3505 19.5 20.0005 18.85 20.0005 18.0557V7.94432C20.0005 7.15002 19.3505 6.50002 18.5562 6.50002H8.44477C7.65047 6.50002 7.00047 7.15002 7.00047 7.94432V18.0557Z" fill="white"/>
</svg>
