<svg width="153" height="13" viewBox="0 0 153 13" fill="none" xmlns="http://www.w3.org/2000/svg">
<path d="M9.06681 2.404V4.324C7.88281 3.252 6.77881 3.14 6.17081 3.14C3.85081 3.14 2.28281 4.852 2.28281 7.204C2.28281 9.46 3.91481 11.204 6.18681 11.204C7.46681 11.204 8.45881 10.548 9.06681 9.972V11.908C7.99481 12.548 6.87481 12.708 6.13881 12.708C4.20281 12.708 2.98681 11.828 2.36281 11.236C1.11481 10.068 0.650813 8.708 0.650813 7.204C0.650813 5.236 1.46681 3.876 2.36281 3.028C3.46681 1.988 4.74681 1.636 6.21881 1.636C7.19481 1.636 8.13881 1.812 9.06681 2.404ZM14.0447 5.588C16.0767 5.588 17.6447 7.06 17.6447 9.14C17.6447 11.204 16.0767 12.708 14.0447 12.708C12.0127 12.708 10.4447 11.204 10.4447 9.14C10.4447 7.06 12.0127 5.588 14.0447 5.588ZM14.0447 11.3C15.2767 11.3 16.0447 10.452 16.0447 9.156C16.0447 7.62 15.0367 6.996 14.0447 6.996C13.0527 6.996 12.0447 7.62 12.0447 9.156C12.0447 10.452 12.8127 11.3 14.0447 11.3ZM19.2651 12.5V5.764H20.8331V6.388C21.5051 5.636 22.2731 5.588 22.6571 5.588C23.9051 5.588 24.4331 6.212 24.6411 6.5C24.8971 6.868 25.0571 7.332 25.0571 8.372V12.5H23.4891V8.756C23.4891 7.044 22.8491 6.996 22.2571 6.996C21.5531 6.996 20.8331 7.092 20.8331 9.268V12.5H19.2651ZM31.7667 10.228L33.0787 10.964C32.7907 11.476 32.3747 11.924 31.9427 12.196C31.3987 12.548 30.6787 12.708 29.9587 12.708C29.0627 12.708 28.3267 12.484 27.6867 11.844C27.0467 11.204 26.6947 10.276 26.6947 9.268C26.6947 8.228 27.0627 7.22 27.7667 6.5C28.3267 5.94 29.0627 5.588 30.0227 5.588C31.0947 5.588 31.7827 6.052 32.1827 6.468C33.0467 7.364 33.1267 8.612 33.1267 9.316V9.508H28.2947C28.3267 9.988 28.5347 10.532 28.8707 10.868C29.2387 11.236 29.6867 11.3 30.0707 11.3C30.5027 11.3 30.8227 11.204 31.1427 10.964C31.4147 10.756 31.6227 10.484 31.7667 10.228ZM28.4067 8.228H31.5267C31.4627 7.86 31.2867 7.54 31.0467 7.316C30.8387 7.124 30.5027 6.932 29.9907 6.932C29.4467 6.932 29.0947 7.156 28.8867 7.364C28.6627 7.572 28.4867 7.892 28.4067 8.228ZM30.6147 1.7L32.0547 2.436L29.5587 4.74L28.6947 4.196L30.6147 1.7ZM39.9814 6.068V7.828C39.2614 7.124 38.5574 6.996 38.0774 6.996C37.3414 6.996 36.8774 7.3 36.5894 7.588C36.3014 7.876 36.0134 8.388 36.0134 9.14C36.0134 9.924 36.3174 10.452 36.6214 10.756C36.9734 11.092 37.4694 11.3 38.0454 11.3C38.6854 11.3 39.4374 11.044 39.9814 10.436V12.18C39.5974 12.42 38.9734 12.708 37.9334 12.708C36.8134 12.708 36.0134 12.388 35.3734 11.716C34.8934 11.22 34.4134 10.42 34.4134 9.188C34.4134 7.924 34.9414 7.076 35.4374 6.58C35.9654 6.052 36.8134 5.588 38.1414 5.588C38.6534 5.588 39.2614 5.668 39.9814 6.068ZM44.3002 7.204H43.1002V12.5H41.5322V7.204H40.8762V5.764H41.5322V3.3H43.1002V5.764H44.3002V7.204ZM50.2872 6.548V5.764H51.8552V12.5H50.2872V11.796C49.5992 12.596 48.7512 12.708 48.2712 12.708C46.1912 12.708 45.0072 10.98 45.0072 9.124C45.0072 6.932 46.5112 5.588 48.2872 5.588C48.7832 5.588 49.6472 5.716 50.2872 6.548ZM48.4792 6.996C47.3432 6.996 46.6072 7.956 46.6072 9.156C46.6072 10.324 47.3432 11.3 48.4792 11.3C49.4712 11.3 50.3832 10.58 50.3832 9.172C50.3832 7.7 49.4712 6.996 48.4792 6.996ZM56.6596 7.204H55.4596V12.5H53.8916V7.204H53.2356V5.764H53.8916V3.3H55.4596V5.764H56.6596V7.204ZM62.4386 10.228L63.7506 10.964C63.4626 11.476 63.0466 11.924 62.6146 12.196C62.0706 12.548 61.3506 12.708 60.6306 12.708C59.7346 12.708 58.9986 12.484 58.3586 11.844C57.7186 11.204 57.3666 10.276 57.3666 9.268C57.3666 8.228 57.7346 7.22 58.4386 6.5C58.9986 5.94 59.7346 5.588 60.6946 5.588C61.7666 5.588 62.4546 6.052 62.8546 6.468C63.7186 7.364 63.7986 8.612 63.7986 9.316V9.508H58.9666C58.9986 9.988 59.2066 10.532 59.5426 10.868C59.9106 11.236 60.3586 11.3 60.7426 11.3C61.1746 11.3 61.4946 11.204 61.8146 10.964C62.0866 10.756 62.2946 10.484 62.4386 10.228ZM59.0786 8.228H62.1986C62.1346 7.86 61.9586 7.54 61.7186 7.316C61.5106 7.124 61.1746 6.932 60.6626 6.932C60.1186 6.932 59.7666 7.156 59.5586 7.364C59.3346 7.572 59.1586 7.892 59.0786 8.228ZM74.3877 6.068V7.828C73.6677 7.124 72.9637 6.996 72.4837 6.996C71.7477 6.996 71.2837 7.3 70.9957 7.588C70.7077 7.876 70.4197 8.388 70.4197 9.14C70.4197 9.924 70.7237 10.452 71.0277 10.756C71.3797 11.092 71.8757 11.3 72.4517 11.3C73.0917 11.3 73.8437 11.044 74.3877 10.436V12.18C74.0037 12.42 73.3797 12.708 72.3397 12.708C71.2197 12.708 70.4197 12.388 69.7797 11.716C69.2997 11.22 68.8197 10.42 68.8197 9.188C68.8197 7.924 69.3477 7.076 69.8437 6.58C70.3717 6.052 71.2197 5.588 72.5477 5.588C73.0597 5.588 73.6677 5.668 74.3877 6.068ZM79.1384 5.588C81.1704 5.588 82.7384 7.06 82.7384 9.14C82.7384 11.204 81.1704 12.708 79.1384 12.708C77.1064 12.708 75.5384 11.204 75.5384 9.14C75.5384 7.06 77.1064 5.588 79.1384 5.588ZM79.1384 11.3C80.3704 11.3 81.1384 10.452 81.1384 9.156C81.1384 7.62 80.1304 6.996 79.1384 6.996C78.1464 6.996 77.1384 7.62 77.1384 9.156C77.1384 10.452 77.9064 11.3 79.1384 11.3ZM84.3588 12.5V5.764H85.9268V6.388C86.5988 5.636 87.3668 5.588 87.7508 5.588C88.9988 5.588 89.5268 6.212 89.7348 6.5C89.9908 6.868 90.1508 7.332 90.1508 8.372V12.5H88.5828V8.756C88.5828 7.044 87.9428 6.996 87.3508 6.996C86.6468 6.996 85.9268 7.092 85.9268 9.268V12.5H84.3588ZM95.8748 0.835999H97.4428V12.5H95.8748V0.835999ZM102.67 5.588C104.702 5.588 106.27 7.06 106.27 9.14C106.27 11.204 104.702 12.708 102.67 12.708C100.638 12.708 99.0697 11.204 99.0697 9.14C99.0697 7.06 100.638 5.588 102.67 5.588ZM102.67 11.3C103.902 11.3 104.67 10.452 104.67 9.156C104.67 7.62 103.662 6.996 102.67 6.996C101.678 6.996 100.67 7.62 100.67 9.156C100.67 10.452 101.438 11.3 102.67 11.3ZM111.64 5.764H113.208V9.62C113.208 10.02 113.224 10.484 113.496 10.836C113.704 11.108 114.072 11.3 114.52 11.3C114.968 11.3 115.336 11.108 115.544 10.836C115.816 10.484 115.832 10.02 115.832 9.62V5.764H117.4V9.668C117.4 10.532 117.304 11.252 116.68 11.876C116.072 12.484 115.24 12.708 114.488 12.708C113.8 12.708 112.968 12.5 112.36 11.876C111.736 11.252 111.64 10.532 111.64 9.668V5.764ZM115.528 1.7L116.968 2.436L114.472 4.74L113.608 4.196L115.528 1.7ZM119.39 0.835999H120.958V12.5H119.39V0.835999ZM125.753 7.204H124.553V12.5H122.985V7.204H122.329V5.764H122.985V3.3H124.553V5.764H125.753V7.204ZM126.812 5.764H128.38V12.5H126.812V5.764ZM126.588 2.98C126.588 2.404 127.02 1.972 127.596 1.972C128.172 1.972 128.604 2.404 128.604 2.98C128.604 3.556 128.172 3.988 127.596 3.988C127.02 3.988 126.588 3.556 126.588 2.98ZM130.359 12.5V5.764H131.927V6.388C132.455 5.748 133.079 5.588 133.591 5.588C134.295 5.588 134.951 5.924 135.335 6.58C135.895 5.78 136.743 5.588 137.335 5.588C138.151 5.588 138.871 5.972 139.255 6.644C139.383 6.868 139.607 7.364 139.607 8.34V12.5H138.039V8.788C138.039 8.036 137.959 7.732 137.895 7.588C137.799 7.332 137.559 6.996 136.999 6.996C136.615 6.996 136.279 7.204 136.071 7.492C135.799 7.876 135.767 8.452 135.767 9.028V12.5H134.199V8.788C134.199 8.036 134.119 7.732 134.055 7.588C133.959 7.332 133.719 6.996 133.159 6.996C132.775 6.996 132.439 7.204 132.231 7.492C131.959 7.876 131.927 8.452 131.927 9.028V12.5H130.359ZM144.842 5.588C146.874 5.588 148.442 7.06 148.442 9.14C148.442 11.204 146.874 12.708 144.842 12.708C142.81 12.708 141.242 11.204 141.242 9.14C141.242 7.06 142.81 5.588 144.842 5.588ZM144.842 11.3C146.074 11.3 146.842 10.452 146.842 9.156C146.842 7.62 145.834 6.996 144.842 6.996C143.85 6.996 142.842 7.62 142.842 9.156C142.842 10.452 143.61 11.3 144.842 11.3ZM150.142 6.548C150.142 6.02 150.574 5.588 151.102 5.588C151.63 5.588 152.062 6.02 152.062 6.548C152.062 7.076 151.63 7.508 151.102 7.508C150.574 7.508 150.142 7.076 150.142 6.548ZM150.142 11.748C150.142 11.22 150.574 10.788 151.102 10.788C151.63 10.788 152.062 11.22 152.062 11.748C152.062 12.276 151.63 12.708 151.102 12.708C150.574 12.708 150.142 12.276 150.142 11.748Z" fill="white"/>
</svg>
