<svg width="117" height="22" viewBox="0 0 117 22" fill="none" xmlns="http://www.w3.org/2000/svg">
<g clip-path="url(#clip0_491_1084)">
<path d="M30.3706 7.7993C32.5277 6.89149 33.8719 8.27001 32.2437 10.3606C31.2525 11.6287 29.2154 12.964 27.7928 12.3948C27.3138 10.7629 28.4655 8.60624 30.3706 7.8005M30.039 21.7719C30.6368 21.8608 32.8272 21.9544 34.5089 21.3312L36.6494 17.2821C32.8439 19.6753 26.9727 16.8762 30.4942 15.5541C34.1001 13.8826 38.45 10.1541 36.155 5.7231C34.9475 3.39233 28.3728 2.53015 24.698 8.14153C21.4712 13.6148 23.4405 20.7836 30.0402 21.7731" fill="white"/>
<path d="M13.1194 0.0216145C12.7545 3.72851 12.285 7.03914 11.4674 9.67131C10.6283 7.04874 10.1291 3.74532 9.73337 0.0396267L3.61146 0.0852574C1.3153 5.46608 0.615283 19.0952 0.5 22L5.22662 21.964C5.40846 21.9616 5.01031 14.0422 6.38539 9.43114C7.89358 15.1866 8.89786 18.1538 9.80586 21.9304L11.522 21.9183L13.2382 21.9111C14.1141 18.1226 15.0934 15.1446 16.5517 9.37471C17.966 13.969 17.6784 21.8943 17.8591 21.8955L22.5465 21.8775C22.405 18.9752 21.585 5.3544 19.2389 0L13.1206 0.0216145H13.1194Z" fill="white"/>
<path d="M90.7803 4.119C86.5992 4.14301 85.6365 5.74129 85.6365 5.74129L85.6306 4.53808L81.2344 4.55969L81.3081 21.4995L86.1369 21.4755L86.1072 14.3223C86.0893 10.6778 87.1019 9.01589 89.0855 9.00388C90.3988 8.99788 91.3139 10.0642 91.3294 13.2511L91.3686 21.4467L96.1951 21.4178L96.1511 10.8495C96.1333 7.33836 94.5906 4.09498 90.7803 4.1178" fill="white"/>
<path d="M106.557 16.2925C106.07 17.3553 104.851 17.5066 103.724 17.5114C102.614 17.521 101.764 16.8521 101.761 15.6969C101.754 14.0927 103.019 13.4754 104.634 13.4682C105.348 13.4634 106.036 13.5211 106.644 13.5535C106.649 14.286 106.851 15.6573 106.557 16.2925ZM111.076 10.77C111.053 5.66659 108.006 3.85817 104.485 3.87859C102.449 3.8894 100.678 4.25204 98.9844 5.09381L99.0818 9.00724C100.401 8.10183 101.938 7.74279 103.47 7.73438C105.191 7.72117 106.593 8.32398 106.631 10.6019C106.023 10.477 105.178 10.387 104.409 10.3894C101.865 10.4026 97.2931 11.0414 97.3145 16.1376C97.3312 19.7629 99.7747 21.2435 102.499 21.3696C106.253 21.5425 111.126 19.5107 111.126 19.5107C111.12 18.1922 111.109 18.3063 111.105 16.9902L111.076 10.77Z" fill="white"/>
<path d="M114.23 4.57139L113.779 4.57739L113.763 3.86892L114.185 3.86171C114.369 3.85571 114.493 3.86772 114.561 3.89533C114.631 3.92175 114.685 3.96138 114.722 4.01181C114.76 4.06705 114.785 4.13429 114.783 4.20274C114.788 4.30841 114.747 4.39727 114.67 4.45971C114.593 4.52816 114.447 4.56539 114.228 4.57019M114.731 4.95565C114.683 4.91122 114.616 4.86919 114.531 4.83557C114.732 4.81635 114.892 4.7419 115.007 4.61102C115.12 4.48133 115.18 4.33123 115.179 4.16191C115.177 4.04183 115.138 3.92535 115.065 3.81848C114.99 3.71521 114.889 3.63836 114.767 3.59513C114.645 3.5543 114.451 3.53869 114.179 3.5447L113.383 3.55791L113.43 5.90429L113.8 5.89708L113.786 4.90281L114.002 4.89921C114.134 4.89561 114.236 4.91962 114.302 4.97366C114.405 5.04211 114.542 5.22463 114.704 5.51162L114.918 5.87547L115.376 5.86946L115.085 5.41316C114.944 5.20181 114.827 5.04691 114.732 4.95565" fill="white"/>
<path d="M115.926 5.55995C115.774 5.85055 115.558 6.0799 115.276 6.24561C114.992 6.41132 114.696 6.49898 114.389 6.50258C114.076 6.50739 113.777 6.43174 113.487 6.27443C113.203 6.12193 112.976 5.89978 112.813 5.61519C112.645 5.3306 112.561 5.03159 112.555 4.71698C112.548 4.39877 112.623 4.09496 112.777 3.79837C112.933 3.50537 113.155 3.27601 113.436 3.11511C113.719 2.94939 114.01 2.86534 114.314 2.86174C114.611 2.85453 114.911 2.93018 115.2 3.08388C115.491 3.23158 115.718 3.45373 115.882 3.74193C116.05 4.03132 116.134 4.33513 116.142 4.65214C116.147 4.96435 116.074 5.26695 115.924 5.55875M116.192 3.5582C115.99 3.20997 115.716 2.94699 115.369 2.76207C115.02 2.58075 114.671 2.49429 114.306 2.50029C113.949 2.5075 113.595 2.60716 113.254 2.8017C112.918 2.99863 112.651 3.26881 112.466 3.62305C112.279 3.97368 112.191 4.34353 112.2 4.72179C112.206 5.09764 112.308 5.45668 112.504 5.79891C112.706 6.14594 112.972 6.40532 113.317 6.59505C113.664 6.78237 114.021 6.86883 114.393 6.86403C114.765 6.85562 115.119 6.75596 115.46 6.55782C115.796 6.35849 116.056 6.0847 116.236 5.73167C116.419 5.38343 116.507 5.02319 116.499 4.64614C116.493 4.26548 116.384 3.90163 116.191 3.5594" fill="white"/>
<path d="M74.982 16.4704C74.4947 17.5319 73.2742 17.6844 72.1498 17.6904C71.0398 17.6964 70.1888 17.0263 70.1841 15.8736C70.1781 14.2693 71.4439 13.6533 73.059 13.6437C73.7709 13.6389 74.4579 13.7001 75.0676 13.7277C75.0723 14.4614 75.2732 15.8327 74.982 16.4692M79.5006 10.9454C79.4781 5.84561 76.4296 4.03599 72.9093 4.05881C70.8698 4.06481 69.099 4.42745 67.409 5.27282L67.5064 9.18505C68.8268 8.27844 70.3612 7.9206 71.8919 7.90619C73.6141 7.90019 75.0177 8.50059 75.0533 10.7761C74.446 10.6536 73.5998 10.5624 72.832 10.566C70.291 10.5804 65.7166 11.2132 65.7403 16.3131C65.7558 19.9383 68.2005 21.4189 70.9209 21.5438C74.6754 21.7155 79.547 19.6825 79.547 19.6825C79.5422 18.3676 79.5315 18.4829 79.528 17.1668L79.5006 10.9454Z" fill="white"/>
<path d="M52.4101 4.17041L47.1177 4.19803L44.9642 9.44916L42.8713 4.22204L37.1499 4.25687L41.5663 12.8246L36.8516 21.7478L42.3055 21.7178L44.5898 16.2673L46.9549 21.6938L52.7821 21.6614L48.0661 12.7202L52.4101 4.17041Z" fill="white"/>
<path d="M57.7118 8.91711C57.7047 7.96847 58.892 7.73311 59.9414 7.72831C61.156 7.7211 62.6963 8.47041 63.7255 9.21611L64.0833 5.12856C62.1294 3.97698 60.8161 3.80047 59.1427 3.80887C56.3391 3.82568 53.1658 5.44677 53.1825 9.36741C53.2098 15.5119 60.103 13.4466 60.1173 16.3225C60.122 17.5005 59.1522 17.6998 58.1551 17.707C56.4021 17.7202 54.4827 16.4426 53.3453 15.8578L53.0957 20.1411C54.5278 20.6898 56.2595 21.6409 58.4415 21.6253C61.6231 21.6096 64.9877 20.4449 64.9687 15.9022C64.9402 9.42865 57.7213 11.5649 57.7118 8.91471" fill="white"/>
</g>
<defs>
<clipPath id="clip0_491_1084">
<rect width="116" height="22" fill="white" transform="translate(0.5)"/>
</clipPath>
</defs>
</svg>
