<svg width="27" height="26" viewBox="0 0 27 26" fill="none" xmlns="http://www.w3.org/2000/svg">
<g clip-path="url(#clip0_491_1096)">
<path d="M26.4993 13.0798C26.4993 5.85503 20.6786 -0.00146484 13.4993 -0.00146484C6.31684 0.000160156 0.496094 5.85504 0.496094 13.0814C0.496094 19.609 5.25084 25.0203 11.4648 26.0018V16.8612H8.16609V13.0814H11.4681V10.197C11.4681 6.91941 13.41 5.10916 16.3788 5.10916C17.8023 5.10916 19.2892 5.36428 19.2892 5.36428V8.58178H17.6496C16.036 8.58178 15.5322 9.59091 15.5322 10.626V13.0798H19.1365L18.5612 16.8595H15.5306V26.0002C21.7446 25.0187 26.4993 19.6074 26.4993 13.0798Z" fill="white"/>
</g>
<defs>
<clipPath id="clip0_491_1096">
<rect width="26" height="26" fill="white" transform="translate(0.5)"/>
</clipPath>
</defs>
</svg>
